<svg width="386" height="254" viewBox="0 0 386 254" fill="none" xmlns="http://www.w3.org/2000/svg">
<path d="M315 97.1601L195.42 155.32C194.879 155.581 194.286 155.716 193.685 155.716C193.084 155.716 192.491 155.581 191.95 155.32L71 97.1401C70.3368 96.8119 69.7776 96.3062 69.3846 95.6792C68.9916 95.0522 68.7803 94.3285 68.7741 93.5885C68.7678 92.8486 68.967 92.1214 69.3494 91.4879C69.7318 90.8543 70.2824 90.3393 70.9401 90.0001L191.2 29.8501C191.754 29.5736 192.366 29.4297 192.985 29.4297C193.605 29.4297 194.216 29.5736 194.77 29.8501L315.07 90.0001C315.732 90.3383 316.288 90.8545 316.673 91.4907C317.058 92.1269 317.258 92.858 317.251 93.6017C317.244 94.3455 317.029 95.0725 316.632 95.701C316.234 96.3296 315.669 96.8349 315 97.1601Z" fill="#DBE7FF"/>
<path d="M305.55 106.44L195.48 160C194.903 160.279 194.271 160.424 193.63 160.424C192.989 160.424 192.357 160.279 191.78 160L80.48 106.43C79.764 106.085 79.159 105.547 78.7335 104.876C78.308 104.205 78.0791 103.428 78.0729 102.634C78.0666 101.839 78.2832 101.059 78.6981 100.381C79.113 99.7035 79.7095 99.1557 80.42 98.8L191.08 43.46C191.671 43.1689 192.321 43.0175 192.98 43.0175C193.639 43.0175 194.289 43.1689 194.88 43.46L305.6 98.82C306.308 99.1758 306.903 99.7226 307.317 100.399C307.731 101.075 307.947 101.853 307.942 102.646C307.937 103.438 307.71 104.213 307.287 104.884C306.865 105.555 306.263 106.093 305.55 106.44Z" fill="#DEDAFF"/>
<path d="M295 107.51L193.55 158.51L91 107.51L189.29 56.7101C190.434 56.1125 191.705 55.8004 192.995 55.8004C194.285 55.8004 195.556 56.1125 196.7 56.7101L295 107.51Z" fill="#D1C3FF"/>
<path d="M190.88 0.500026L3.44003 93.56C2.64139 93.9567 1.96932 94.5684 1.4995 95.3263C1.02968 96.0843 0.780762 96.9583 0.780762 97.85C0.780762 98.7418 1.02968 99.6158 1.4995 100.374C1.96932 101.132 2.64139 101.743 3.44003 102.14L190.87 195.86C191.537 196.191 192.271 196.362 193.015 196.362C193.759 196.362 194.493 196.191 195.16 195.86L382.6 102.14C383.399 101.743 384.071 101.132 384.541 100.374C385.01 99.6158 385.259 98.7418 385.259 97.85C385.259 96.9583 385.01 96.0843 384.541 95.3263C384.071 94.5684 383.399 93.9567 382.6 93.56L195.14 0.500026C194.479 0.169895 193.749 -0.00195312 193.01 -0.00195312C192.271 -0.00195312 191.542 0.169895 190.88 0.500026ZM72.45 89.25L190.86 30C191.525 29.665 192.26 29.4905 193.005 29.4905C193.75 29.4905 194.485 29.665 195.15 30L313.63 89.28C314.432 89.6793 315.105 90.2953 315.575 91.0581C316.044 91.8209 316.29 92.7 316.285 93.5956C316.279 94.4912 316.023 95.3674 315.545 96.1247C315.067 96.882 314.386 97.4901 313.58 97.88L195.8 155.15C195.148 155.464 194.434 155.627 193.71 155.627C192.986 155.627 192.272 155.464 191.62 155.15L72.51 97.86C71.7006 97.4722 71.0165 96.8647 70.5356 96.1068C70.0547 95.349 69.7964 94.4713 69.7901 93.5738C69.7839 92.6762 70.0299 91.795 70.5002 91.0306C70.9705 90.2661 71.6461 89.6491 72.45 89.25Z" fill="#9333FF"/>
<path d="M345.66 137.66V177.8L192.86 254H192.85L192.86 213.86L345.66 137.66Z" fill="#DEDAFF"/>
<path d="M192.86 213.86V254L41.4299 177.8C41.4899 164.7 41.5533 151.6 41.6199 138.5L192.85 213.86H192.86Z" fill="#9333FF"/>
<path d="M1.00004 171.67L0.790039 97.8301L15.27 105.08L15.42 179.31C15.4244 179.629 15.3467 179.944 15.1942 180.224C15.0418 180.504 14.8199 180.741 14.5497 180.911C14.2795 181.08 13.9702 181.178 13.6516 181.193C13.3329 181.209 13.0156 181.142 12.73 181L4.42004 177.09C3.39594 176.602 2.53109 175.834 1.92577 174.875C1.32045 173.916 0.999467 172.804 1.00004 171.67Z" fill="#9333FF"/>
<path d="M0.76001 168.82V228.94C0.760625 229.163 0.81672 229.382 0.923223 229.577C1.02973 229.773 1.18328 229.939 1.37001 230.06L25 245.29C25.2 245.407 25.427 245.469 25.6585 245.471C25.8901 245.473 26.1181 245.415 26.3202 245.302C26.5222 245.189 26.6912 245.025 26.8104 244.826C26.9297 244.628 26.995 244.402 27 244.17V181.81C27.0018 181.571 26.9386 181.336 26.817 181.13C26.6955 180.923 26.5203 180.754 26.31 180.64L2.70001 167.64C2.49741 167.536 2.27133 167.485 2.04348 167.493C1.81562 167.501 1.59364 167.567 1.39885 167.686C1.20406 167.804 1.043 167.971 0.931125 168.169C0.819253 168.368 0.760329 168.592 0.76001 168.82Z" fill="#DEDAFF"/>
<path d="M231.3 128.05L201.51 142.53C199.326 143.582 196.934 144.128 194.51 144.128C192.086 144.128 189.694 143.582 187.51 142.53L157.29 128C156.663 127.693 156.135 127.216 155.765 126.624C155.396 126.032 155.2 125.348 155.2 124.65C155.2 123.952 155.396 123.268 155.765 122.676C156.135 122.084 156.663 121.607 157.29 121.3L188.44 105.72C190.266 104.807 192.279 104.332 194.32 104.332C196.361 104.332 198.374 104.807 200.2 105.72L231.39 121.31C232.02 121.624 232.55 122.109 232.916 122.71C233.283 123.312 233.473 124.004 233.463 124.708C233.454 125.412 233.246 126.1 232.863 126.691C232.481 127.282 231.939 127.753 231.3 128.05Z" fill="#0066C6"/>
<path d="M231 74.52L198.8 90.17C197.428 90.8339 195.924 91.1788 194.4 91.1788C192.876 91.1788 191.372 90.8339 190 90.17L157.35 74.5C156.707 74.1832 156.165 73.6926 155.786 73.0838C155.407 72.4749 155.206 71.7721 155.206 71.055C155.206 70.3379 155.407 69.6351 155.786 69.0263C156.165 68.4174 156.707 67.9268 157.35 67.61L190.18 51.19C191.422 50.5687 192.791 50.2452 194.18 50.2452C195.569 50.2452 196.938 50.5687 198.18 51.19L231 67.63C231.643 67.9468 232.185 68.4374 232.564 69.0463C232.943 69.6551 233.144 70.3579 233.144 71.075C233.144 71.7921 232.943 72.4949 232.564 73.1038C232.185 73.7126 231.643 74.2032 231 74.52Z" fill="#339366"/>
<path d="M182.84 100.86L151.31 116.19C149.628 117.002 147.783 117.424 145.915 117.424C144.047 117.424 142.203 117.002 140.52 116.19L108.58 100.82C107.966 100.518 107.449 100.051 107.087 99.4702C106.726 98.8895 106.534 98.2192 106.534 97.5351C106.534 96.851 106.726 96.1806 107.087 95.6C107.449 95.0194 107.966 94.5517 108.58 94.2501L140.9 78.0901C142.402 77.3401 144.057 76.9497 145.735 76.9497C147.413 76.9497 149.069 77.3401 150.57 78.0901L182.93 94.2701C183.545 94.5779 184.062 95.053 184.419 95.6408C184.777 96.2286 184.962 96.9053 184.952 97.5933C184.943 98.2813 184.74 98.9527 184.366 99.5305C183.993 100.108 183.464 100.569 182.84 100.86Z" fill="#C63333"/>
<path d="M275.88 103.61L246.65 117.82C245.044 118.597 243.284 119.001 241.5 119.001C239.716 119.001 237.956 118.597 236.35 117.82L206.73 103.57C205.879 103.159 205.159 102.518 204.654 101.72C204.148 100.921 203.876 99.997 203.869 99.0519C203.862 98.1067 204.119 97.1784 204.613 96.3721C205.106 95.5659 205.815 94.9139 206.66 94.4901L236.77 79.4301C238.168 78.7343 239.708 78.3722 241.27 78.3722C242.832 78.3722 244.372 78.7343 245.77 79.4301L275.93 94.5101C276.781 94.9299 277.497 95.5807 277.996 96.388C278.495 97.1953 278.756 98.1267 278.751 99.0757C278.746 100.025 278.474 100.953 277.966 101.755C277.459 102.557 276.736 103.2 275.88 103.61Z" fill="#C66633"/>
<path d="M231.3 125L201.51 139.49C199.326 140.542 196.934 141.088 194.51 141.088C192.086 141.088 189.694 140.542 187.51 139.49L157.29 125C156.663 124.693 156.135 124.216 155.765 123.624C155.396 123.032 155.2 122.348 155.2 121.65C155.2 120.952 155.396 120.268 155.765 119.676C156.135 119.084 156.663 118.607 157.29 118.3L188.44 102.72C190.266 101.807 192.279 101.332 194.32 101.332C196.361 101.332 198.374 101.807 200.2 102.72L231.39 118.32C232.007 118.637 232.524 119.121 232.882 119.716C233.24 120.311 233.424 120.994 233.415 121.688C233.406 122.382 233.203 123.06 232.829 123.645C232.455 124.23 231.926 124.699 231.3 125Z" fill="#0093FF"/>
<path d="M231 71.51L198.8 87.17C197.428 87.8339 195.924 88.1788 194.4 88.1788C192.876 88.1788 191.372 87.8339 190 87.17L157.35 71.5C156.704 71.1843 156.16 70.6935 155.779 70.0836C155.398 69.4736 155.196 68.7691 155.196 68.05C155.196 67.331 155.398 66.6264 155.779 66.0164C156.16 65.4065 156.704 64.9157 157.35 64.6L190.18 48.19C191.422 47.5687 192.792 47.2452 194.18 47.2452C195.569 47.2452 196.938 47.5687 198.18 48.19L231 64.62C231.643 64.9368 232.185 65.4274 232.564 66.0363C232.943 66.6451 233.144 67.3479 233.144 68.065C233.144 68.7821 232.943 69.4849 232.564 70.0938C232.185 70.7026 231.643 71.1932 231 71.51Z" fill="#33C693"/>
<path d="M182.84 97.85L151.31 113.18C149.628 113.994 147.784 114.417 145.915 114.417C144.046 114.417 142.202 113.994 140.52 113.18L108.58 97.81C107.967 97.5067 107.45 97.0379 107.089 96.4565C106.728 95.8752 106.536 95.2044 106.536 94.52C106.536 93.8356 106.728 93.1648 107.089 92.5834C107.45 92.0021 107.967 91.5333 108.58 91.23L140.85 75.1C142.352 74.35 144.007 73.9596 145.685 73.9596C147.363 73.9596 149.019 74.35 150.52 75.1L182.88 91.28C183.492 91.5853 184.007 92.0561 184.365 92.639C184.723 93.2218 184.911 93.8934 184.906 94.5774C184.902 95.2615 184.706 95.9307 184.341 96.5092C183.976 97.0876 183.456 97.5521 182.84 97.85Z" fill="#FF3366"/>
<path d="M275.88 100.61L246.65 114.82C245.044 115.597 243.284 116.001 241.5 116.001C239.716 116.001 237.956 115.597 236.35 114.82L206.73 100.57C205.879 100.159 205.159 99.5183 204.654 98.7198C204.148 97.9212 203.876 96.997 203.869 96.0519C203.862 95.1067 204.119 94.1784 204.613 93.3721C205.106 92.5659 205.815 91.9139 206.66 91.4901L236.77 76.4301C238.166 75.7267 239.707 75.3604 241.27 75.3604C242.833 75.3604 244.374 75.7267 245.77 76.4301L275.93 91.5101C276.781 91.9299 277.497 92.5807 277.996 93.388C278.495 94.1953 278.756 95.1267 278.751 96.0757C278.746 97.0247 278.474 97.9531 277.966 98.7549C277.459 99.5567 276.736 100.2 275.88 100.61Z" fill="#FF9333"/>
</svg>
